<svg xmlns="http://www.w3.org/2000/svg" version="1.1" xmlns:xlink="http://www.w3.org/1999/xlink" width="512" height="512" x="0" y="0" viewBox="0 0 128 128" style="enable-background:new 0 0 512 512" xml:space="preserve" class=""><g><path fill="#456675" d="m105.544 67.243 15.166-7.99c-.9-5.039-.848-4.827-1.745-9.867l-16.976-2.331c-1.713-2.968-2.43-4.224-4.159-7.192L104.3 24c-3.913-3.294-3.75-3.163-7.664-6.441l-14.51 9.127c-3.229-1.174-4.582-1.679-7.8-2.853L69.08 7.525H59.067l-5.251 16.308c-3.213 1.174-4.566 1.679-7.8 2.853l-14.509-9.132C27.593 20.832 27.756 20.7 23.842 24l6.475 15.868c-1.729 2.968-2.447 4.224-4.159 7.192L9.182 49.386c-.9 5.04-.848 4.828-1.745 9.867l15.163 7.99c.587 3.376.848 4.8 1.435 8.187l-11.51 12.687c2.56 4.436 2.463 4.256 5.007 8.676l16.768-3.62c2.625 2.217 3.734 3.147 6.36 5.348L40 115.644c4.8 1.745 4.6 1.68 9.41 3.425l10.5-13.535h8.317l10.5 13.535c4.811-1.745 4.615-1.68 9.41-3.425l-.653-17.123c2.626-2.2 3.735-3.131 6.36-5.348l16.764 3.62c2.544-4.42 2.446-4.24 5.007-8.676L104.109 75.43c.591-3.392.848-4.811 1.435-8.187zM64.073 93.075A29.778 29.778 0 1 1 93.851 63.3a29.78 29.78 0 0 1-29.778 29.775z" opacity="1" data-original="#456675" class=""></path><path fill="#eb7a46" d="M85.791 63.187a21.208 21.208 0 0 0-.484-4.522l-15.6 15.6-12.05-3.828-3.829-12.05L69.635 42.58a21.215 21.215 0 0 0-24.176 29.793l-34.585 29.9a10.361 10.361 0 1 0 14.614 14.614L55.4 82.3a21.2 21.2 0 0 0 30.4-19.116z" opacity="1" data-original="#eb7a46"></path><path fill="#f7f7f7" d="M21.688 109.432a3.4 3.4 0 1 1-3.4-3.4 3.4 3.4 0 0 1 3.4 3.4z" opacity="1" data-original="#f7f7f7"></path></g></svg>